<svg xmlns="http://www.w3.org/2000/svg" width="100" height="100" viewBox="0 0 100 100"><path fill="#29B762" d="M13.262 50.04c0-8.883 3.198-17.48 9.012-24.206 6.467-7.492 15.47-12.013 25.34-12.736 9.872-.722 19.433 2.445 26.92 8.913 8.16 7.05 12.834 17.278 12.834 28.063 0 8.878-3.2 17.477-9.013 24.2-6.464 7.49-15.464 12.016-25.34 12.734-9.875.725-19.44-2.44-26.93-8.91-8.15-7.043-12.823-17.27-12.823-28.056zm66.83.033c0-8.672-3.757-16.894-10.314-22.557-6.018-5.2-13.7-7.742-21.636-7.165-7.93.583-15.164 4.217-20.362 10.234-4.673 5.407-7.245 12.318-7.245 19.454 0 8.676 3.76 16.895 10.31 22.55 6.018 5.2 13.706 7.743 21.645 7.165 7.934-.582 15.167-4.214 20.363-10.23 4.668-5.41 7.24-12.313 7.24-19.45zM64.87 53.702l-29.103-.01v-7.268h29.097zM46.588 35.54l7.273-.044.176 29.1-7.273.045z"/></svg>