<svg xmlns="http://www.w3.org/2000/svg" xmlns:xlink="http://www.w3.org/1999/xlink" width="288" height="288" viewBox="0 0 288 288"><defs><path id="a" d="M-395.333-204.462h1080v1920h-1080z"/></defs><clipPath id="b"><use xlink:href="#a" overflow="visible"/></clipPath><text transform="translate(7.299 -141.789)" fill="#EDF0F1" font-family="'Pacifico-Regular'" font-size="51.526" clip-path="url(#b)">halloumi App</text><path clip-path="url(#b)" fill="#6D6E71" d="M144.666 19.55c-69.036 0-125 55.992-125 125 0 69.01 55.964 125 125 125 69.038 0 125-55.99 125-125 0-69.008-55.962-125-125-125m38.054 67.3V68.79l50.36 29.127-50.36 29.056v-16.685c-4.12 1.3-9.375 4.726-15.264 10.586-5.05 4.96-10.264 11.308-15.605 18.228-1.265-1.627-2.548-3.34-3.82-5.13-3.494-4.72-7.06-9.44-10.693-14.16 12.685-15.384 25.87-30.515 45.383-32.962m0 133.462v-17.655c-12.688-1.466-22.828-8.95-31.66-17.657-14.65-14.492-27.435-34.428-40.07-50.214-12.446-16.276-24.94-25.957-31.41-25.15H56.25V86.283h23.326c14.565.24 25.856 8.463 35.593 17.988 14.64 14.562 27.44 34.42 40.058 50.207 10.295 13.425 20.562 22.298 27.492 24.577V162.13l50.36 29.056-50.36 29.126zM104.518 1331.38v-5.722c1.934.215 3.14 1.166 4.645 1.166 1.762 0 2.885-1.5 2.885-3.18 0-3.096-4.95-4.13-7.533-4.22v-1.337c0-1.166 0-2.025-1.162-2.025-1.158 0-1.158.863-1.158 2.025v1.338c-5.127.562-9.258 4.176-9.258 9.684 0 6.155 5.162 7.27 9.258 8.48v7.183c-2.5-.254-4.648-1.64-6.5-1.64-1.766 0-2.89 1.38-2.89 3.065 0 3.695 5.9 4.643 9.39 4.73v1.33c0 .996 0 2.03 1.158 2.03 1.162 0 1.162-1.034 1.162-2.03v-1.373c5.375-.43 9.77-4.14 9.77-9.863-.002-6.926-5.6-8.436-9.767-9.643m-2.33-.763c-1.376-.525-2.28-1.162-2.28-2.283 0-1.373.986-2.285 2.28-2.63v4.913zm2.326 13.987v-6.28c1.635.556 2.793 1.372 2.793 2.798 0 1.673-.987 3.05-2.793 3.482M144.666 1173.166c-69.035 0-125 55.963-125 125 0 69.033 55.965 125 125 125 69.036 0 125-55.967 125-125 0-69.037-55.964-125-125-125m56.166 116.705H183.41c-2.18 0-3.463-1.34-3.463-3.47 0-1.822 3.863-3.736 3.863-9.25h-2.31c-1.87 0-3.2-1.152-3.2-3.066s1.335-3.068 3.2-3.068h.938c-.576-1.105-1.156-3.47-1.156-4.715 0-5.284 5.156-8.622 11.205-8.622 6.216 0 11.243 3.293 11.243 7.688 0 2.05-1.462 3.387-3.464 3.387-3.027 0-2.89-4.662-7.513-4.662-2.22 0-4.274 1.196-4.274 3.42 0 .84.182 1.685.58 2.35l.656 1.165h6.765c1.87 0 3.2 1.156 3.2 3.066s-1.338 3.067-3.2 3.067h-5.736c0 2.402-.845 4.623-2.27 6.582h12.358c1.872 0 3.2 1.155 3.202 3.06 0 1.913-1.33 3.07-3.202 3.07m29.096 9.415c-.21.062-1.603.463-4.525 1.117 1.96-1.377 2.904-2.305 3.06-2.46 1.017-1.02 1.202-3.124.456-4.355l-41.703-68.8c-.664-1.106-1.94-1.69-3.216-1.46-1.263.22-2.27 1.197-2.522 2.467-3.863 19.33-18.477 55.828-31.764 84.76l-.085.002c-22.455 42.713-43.79 69.914-44.7 71.076-1.056 1.338-2.657 2.105-4.347 2.105-.125 0-.254 0-.38-.016-1.82-.116-3.468-1.142-4.39-2.714l-39.625-67.354c-.98-1.67-1.016-3.744-.092-5.45.922-1.698 2.666-2.802 4.613-2.897 30.083-1.39 57.606-3.146 81.884-5.24 14.404-28.145 25.625-56.207 33.385-83.457.608-2.105 2.392-3.666 4.56-3.965 2.16-.3 4.316.697 5.473 2.562l47.065 75.842c.912 1.465 1.08 3.28.464 4.896-.616 1.623-1.954 2.854-3.614 3.342M104.514 1344.604c1.807-.432 2.793-1.81 2.793-3.482M204.596 734.48l.003-.004c-2.567-1.172-5.867-2.27-10.71-2.422v.006c4.84.15 8.14 1.245 10.706 2.42M186.698 732.576v-6.97h7.19v-.003h-7.193v6.965c-7.847 1.47-12.396 6.53-12.396 13.06 0 2.228.52 4.116 1.483 5.74-.96-1.624-1.484-3.513-1.484-5.73 0-6.533 4.55-11.595 12.398-13.062M82.22 744.092c.953 0 1.78-.334 2.474-1.002.693-.67 1.04-1.484 1.04-2.44s-.347-1.772-1.04-2.442c-.693-.668-1.52-1.002-2.475-1.002-.96 0-1.774.334-2.442 1.002-.67.67-1.006 1.484-1.006 2.44s.336 1.772 1.006 2.442c.667.668 1.48 1.002 2.44 1.002"/><path clip-path="url(#b)" fill="#6D6E71" d="M186.33 778.506h.007v6.96h-.007zM114.504 766.912c-.953 0-1.78.332-2.475 1.002-.693.674-1.042 1.484-1.042 2.44s.35 1.782 1.04 2.476c.695.693 1.522 1.04 2.476 1.04.96 0 1.77-.347 2.44-1.04.67-.693 1.003-1.518 1.003-2.475s-.334-1.768-1.002-2.44c-.67-.67-1.48-1.003-2.44-1.003M99.117 702.172c-29.428 0-53.36 23.94-53.36 53.365 0 29.422 23.933 53.363 53.36 53.363 17.23 0 32.574-8.22 42.337-20.934.618.928 1.272 1.832 1.942 2.72-.67-.888-1.324-1.796-1.942-2.724-6.188-9.287-9.798-20.434-9.798-32.426 0-11.994 3.61-23.145 9.798-32.432-9.763-12.71-25.106-20.932-42.337-20.932m-27.015 42.783c-.576-1.338-.863-2.773-.863-4.307 0-1.53.286-2.965.862-4.303.573-1.342 1.36-2.5 2.367-3.48 1-.98 2.163-1.762 3.478-2.334 1.312-.57 2.737-.862 4.27-.862 1.528 0 2.964.29 4.308.863 1.338.573 2.507 1.356 3.513 2.335 1.002.98 1.793 2.14 2.37 3.48.57 1.338.854 2.773.854 4.303 0 1.533-.283 2.97-.855 4.307-.577 1.338-1.368 2.5-2.37 3.48-1.007.98-2.176 1.758-3.514 2.33-1.344.576-2.78.86-4.307.86-1.534 0-2.96-.284-4.272-.86-1.315-.572-2.478-1.352-3.48-2.33-1.005-.98-1.793-2.142-2.366-3.48m15.498 35.66H75.47l33.51-50.227h12.058L87.6 780.615zm37.025-5.957c-.573 1.342-1.36 2.514-2.367 3.516-1.006 1.006-2.178 1.795-3.516 2.37-1.344.573-2.754.86-4.238.86-1.53 0-2.965-.287-4.303-.86-1.337-.575-2.51-1.364-3.52-2.37-1-1.002-1.788-2.174-2.362-3.516-.576-1.338-.862-2.773-.862-4.303 0-1.484.286-2.895.862-4.234.574-1.337 1.36-2.51 2.363-3.515 1.01-1.006 2.183-1.795 3.52-2.367s2.774-.863 4.304-.863c1.484 0 2.895.29 4.238.863 1.338.572 2.51 1.36 3.516 2.367s1.794 2.178 2.367 3.516c.572 1.34.86 2.75.86 4.235 0 1.53-.288 2.965-.86 4.303M194.4 750.623c6.553 2.31 10.127 5.156 11.504 9.25-1.377-4.094-4.95-6.945-11.508-9.254-6.305-2.276-8.873-3.894-8.873-6.237 0 2.353 2.57 3.97 8.877 6.24M188.24 769.994c4.256 0 7.117-1.69 7.117-4.55v-.005c-.004 2.864-2.86 4.55-7.12 4.55-4.766 0-9.095-1.54-12.182-3.23l-2.196 8.59h.003l2.197-8.583c3.083 1.688 7.416 3.227 12.18 3.227M144.666 630.537c-69.035 0-125 55.965-125 125.002 0 69.034 55.965 125 125 125 69.037 0 125-55.966 125-125 0-69.038-55.963-125.003-125-125.003m45.555 183.565c-18.4 0-34.813-8.496-45.55-21.764-10.742 13.27-27.148 21.768-45.553 21.768-32.348 0-58.57-26.225-58.57-58.566 0-32.348 26.227-58.568 58.57-58.568 18.404 0 34.81 8.488 45.553 21.768 10.736-13.28 27.146-21.768 45.55-21.768 32.345 0 58.568 26.22 58.568 58.568 0 32.34-26.224 58.562-58.567 58.562M190.22 706.225c-14.95 0-28.935 6.686-38.355 18.334-.967 1.2-1.882 2.43-2.708 3.68-5.4 8.1-8.246 17.536-8.246 27.298 0 9.76 2.847 19.197 8.247 27.295.826 1.244 1.738 2.48 2.708 3.686 9.42 11.644 23.405 18.33 38.356 18.33 27.19 0 49.313-22.12 49.313-49.312 0-27.194-22.122-49.313-49.312-49.313m12.63 78.402v10.1h-25.769v-8.316c-2.846-.737-5.496-1.747-7.696-2.962l-6.267-3.463 1.78-6.934 2.194-8.58 1.76-6.845c-2.533-3.422-3.806-7.43-3.806-11.992 0-8.652 4.678-15.81 12.398-19.666v-9.615h25.708v7.768c2.2.605 3.947 1.328 5.302 1.945l7.096 3.246-2.002 7.546-2.197 8.293-1.153 4.327c3.184 3.385 5.64 8.164 5.64 14.938 0 8.886-4.982 16.34-12.986 20.212M190.22 696.97c-18.404 0-34.813 8.49-45.55 21.77v.003c-1.14 1.398-2.213 2.857-3.217 4.363-6.188 9.287-9.797 20.438-9.797 32.432 0 11.992 3.61 23.14 9.797 32.426.62.928 1.273 1.836 1.944 2.725.417.556.837 1.108 1.272 1.645v.004c10.735 13.267 27.147 21.763 45.55 21.763 32.344 0 58.567-26.223 58.567-58.564 0-32.35-26.223-58.57-58.566-58.57m0 112.507c-16.356 0-31.65-7.31-41.956-20.05-1.06-1.313-2.057-2.67-2.955-4.026-5.905-8.856-9.024-19.185-9.024-29.862 0-10.676 3.12-21.004 9.023-29.863.907-1.36 1.9-2.715 2.954-4.023 10.312-12.74 25.6-20.05 41.957-20.05 29.74 0 53.942 24.194 53.942 53.94 0 29.735-24.202 53.935-53.94 53.935M195.94 746.258c-1.563-.564-2.73-1.03-3.6-1.416 3.872.098 6.428 1.324 7.974 2.07l5.05 2.414 1.502-5.363 3.208-12.068-3.552-1.62c-1.797-.82-4.397-1.856-8.005-2.425v-6.875H182.07v8.06c-7.645 2.728-12.397 8.933-12.397 16.6 0 11.03 9.332 15.444 16.357 17.808 2.23.742 3.44 1.334 4.087 1.73-.44.106-1.063.194-1.88.194-4.434 0-8.142-1.67-9.958-2.662l-5.223-2.86-4.57 17.823 3.132 1.73c2.69 1.487 6.314 2.64 10.084 3.26v7.446h16.514v-8.57c8.008-2.66 12.988-9.066 12.988-17.117 0-11.32-8.157-15.65-15.267-18.16m-2.344 31.657v7.56h-7.26v-.007h-.006v-6.96c-4.915-.226-9.68-1.614-12.467-3.155v-.002h-.004l2.196-8.588c3.086 1.69 7.416 3.23 12.182 3.23 4.258 0 7.115-1.687 7.12-4.552-.005-2.785-2.35-4.543-7.856-6.377-5.394-1.816-9.61-4.12-11.718-7.695-.964-1.623-1.485-3.512-1.485-5.738 0-6.53 4.55-11.592 12.395-13.06v-6.966h7.193v6.452c4.844.15 8.146 1.25 10.71 2.42l-.003.005c.003 0 .003.003.006.003l-2.202 8.29c-1.833-.884-5.277-2.567-10.56-2.567-4.772 0-6.315 2.127-6.315 4.178 0 2.344 2.568 3.96 8.873 6.236 6.557 2.31 10.13 5.16 11.508 9.254.462 1.367.677 2.87.677 4.54 0 6.53-4.543 12.107-12.984 13.5M187.502 759.057c-5.394-1.816-9.61-4.117-11.72-7.688 2.11 3.573 6.326 5.876 11.72 7.692 5.508 1.834 7.853 3.592 7.855 6.377 0-2.786-2.347-4.544-7.855-6.383M206.578 764.408c0 6.533-4.545 12.105-12.982 13.5v7.56h-7.26v.01h7.26v-7.563c8.44-1.393 12.985-6.97 12.985-13.5 0-1.67-.214-3.174-.676-4.54.46 1.36.674 2.863.674 4.533M173.863 775.35v.002c2.786 1.54 7.552 2.93 12.467 3.154v-.006c-4.908-.22-9.68-1.61-12.467-3.15M191.835 740.2c-4.77 0-6.312 2.124-6.312 4.18v.003c0-2.05 1.543-4.178 6.314-4.178 5.283 0 8.728 1.684 10.56 2.568l2.204-8.29c-.002 0-.002-.003-.005-.003l-2.197 8.287c-1.835-.878-5.28-2.568-10.563-2.568M143.397 790.688c.417.553.837 1.107 1.27 1.646 0 0 .003 0 .003.004v-.004c-.436-.537-.856-1.09-1.273-1.646M141.454 723.105c1.003-1.506 2.077-2.965 3.216-4.363v-.004s-.003 0-.003.004c-1.136 1.4-2.21 2.858-3.213 4.363M211.35 745.146l2.197-8.29 2.002-7.546-7.097-3.246c-1.354-.617-3.103-1.34-5.303-1.945v-7.77h-25.708v9.618c-7.72 3.854-12.397 11.012-12.397 19.664 0 4.562 1.272 8.57 3.805 11.992l-1.758 6.846-2.194 8.58-1.78 6.934 6.267 3.463c2.2 1.215 4.85 2.225 7.698 2.963v8.316h25.769v-10.1c8.004-3.87 12.985-11.326 12.985-20.213 0-6.773-2.455-11.553-5.64-14.938l1.153-4.33zm-.143 19.268c0 8.05-4.98 14.457-12.988 17.117v8.57h-16.515v-7.444c-3.77-.62-7.394-1.773-10.085-3.262l-3.132-1.73 4.57-17.823 5.222 2.862c1.816.992 5.524 2.662 9.958 2.662.816 0 1.438-.088 1.88-.195-.646-.396-1.857-.987-4.087-1.73-7.024-2.363-16.356-6.777-16.356-17.81 0-7.665 4.752-13.87 12.396-16.6v-8.058h16.448v6.875c3.607.568 6.208 1.604 8.004 2.424l3.553 1.622-3.207 12.068-1.504 5.363-5.05-2.414c-1.545-.747-4.1-1.974-7.974-2.07.87.384 2.037.85 3.6 1.415 7.11 2.513 15.267 6.843 15.267 18.16M79.777 738.207c.668-.668 1.48-1.002 2.44-1.002.956 0 1.782.334 2.476 1.002.693.67 1.038 1.484 1.038 2.44s-.344 1.772-1.037 2.442c-.693.667-1.52 1-2.475 1-.96 0-1.773-.333-2.44-1-.67-.67-1.007-1.485-1.007-2.442s.337-1.77 1.007-2.44M116.945 772.83c-.67.693-1.48 1.04-2.44 1.04-.954 0-1.782-.347-2.475-1.04s-1.042-1.518-1.042-2.475.35-1.768 1.042-2.44c.692-.67 1.52-1.003 2.474-1.003.96 0 1.77.332 2.44 1.002.67.674 1.004 1.484 1.004 2.44s-.335 1.783-1.003 2.476"/><path clip-path="url(#b)" fill="#EDF0F1" d="M624.517-184.456c-13.85 0-25.077 11.228-25.077 25.08 0 13.848 11.228 25.076 25.077 25.076 13.85 0 25.08-11.228 25.08-25.077 0-13.85-11.23-25.08-25.08-25.08m3.663 42.17c-.02.115-.104.206-.214.236-.93.243-2.344.534-3.808.534-2.21 0-3.838-.602-4.837-1.79-1.08-1.284-1.407-3.203-.973-5.704l1.99-11.123H616.9c-.087 0-.17-.037-.225-.105-.056-.066-.078-.154-.062-.24l.84-4.68c.026-.138.147-.24.29-.24h9.728c.088 0 .17.038.227.105.055.066.077.154.062.24l-2.946 16.406c-.14.814-.078 1.364.188 1.68.225.267.638.396 1.26.396.734 0 1.54-.143 2.27-.404.097-.035.205-.017.285.05.08.067.117.172.1.273l-.737 4.364zm-2.76-25.944c-2.336 0-4.236-1.9-4.236-4.237s1.9-4.237 4.236-4.237 4.236 1.9 4.236 4.237c0 2.335-1.9 4.236-4.236 4.236"/><path fill="#6C6D70" d="M-10.5-6.5H313v319H-10.5z"/><path fill="#fff" d="M192.784 119.396v-35.18H171.95V98.14l-26.784-27.32-74.406 75.895h17.857v49.108h46.132v-40.18h20.83v40.18h46.133v-49.108h17.86z"/></svg>