<svg xmlns="http://www.w3.org/2000/svg" width="100" height="100" viewBox="0 0 100 100"><path fill="#F22613" d="M50.303 87.106c-8.884 0-17.48-3.2-24.207-9.012-7.492-6.467-12.013-15.47-12.736-25.34-.722-9.87 2.445-19.433 8.913-26.92C29.32 17.673 39.55 13 50.335 13c8.88 0 17.478 3.2 24.2 9.012 7.49 6.464 12.016 15.464 12.734 25.34.724 9.875-2.44 19.44-8.91 26.93-7.044 8.15-17.27 12.824-28.057 12.824zm.032-66.83c-8.672 0-16.894 3.757-22.557 10.315-5.2 6.018-7.742 13.7-7.165 21.637.582 7.93 4.216 15.164 10.233 20.362 5.407 4.672 12.318 7.244 19.454 7.244 8.676 0 16.895-3.76 22.552-10.31 5.2-6.017 7.742-13.705 7.163-21.644-.582-7.934-4.213-15.167-10.23-20.364-5.41-4.67-12.312-7.24-19.45-7.24zM58.953 62.326L36.93 43.302l4.75-5.504 22.025 19.018zM43.557 63.455l-5.505-4.753L57.07 36.676l5.504 4.752z"/></svg>