<?xml version="1.0" encoding="utf-8"?>
<!-- Generator: Adobe Illustrator 16.0.0, SVG Export Plug-In . SVG Version: 6.00 Build 0)  -->
<!DOCTYPE svg PUBLIC "-//W3C//DTD SVG 1.1//EN" "http://www.w3.org/Graphics/SVG/1.1/DTD/svg11.dtd">
<svg version="1.1" id="Ebene_1" xmlns="http://www.w3.org/2000/svg" xmlns:xlink="http://www.w3.org/1999/xlink" x="0px" y="0px"
	 width="100px" height="100px" viewBox="0 0 100 100" enable-background="new 0 0 100 100" xml:space="preserve">
<path fill="#29B762" d="M13.262,50.041c0-8.884,3.198-17.48,9.012-24.207c6.467-7.492,15.469-12.013,25.34-12.736
	c9.872-0.722,19.433,2.445,26.921,8.913c8.159,7.048,12.833,17.277,12.833,28.062c0,8.878-3.2,17.477-9.013,24.2
	c-6.464,7.49-15.464,12.016-25.34,12.734c-9.875,0.725-19.44-2.439-26.93-8.91C17.934,71.054,13.262,60.827,13.262,50.041z
	 M80.092,50.073c0-8.672-3.757-16.894-10.314-22.557c-6.018-5.199-13.7-7.742-21.636-7.165c-7.93,0.582-15.164,4.216-20.362,10.233
	c-4.673,5.407-7.245,12.318-7.245,19.454c0,8.676,3.759,16.895,10.309,22.551c6.019,5.2,13.707,7.742,21.646,7.164
	c7.934-0.582,15.167-4.214,20.363-10.23C77.521,64.112,80.092,57.21,80.092,50.073z"/>
<polygon fill="#29B762" points="64.869,53.702 35.767,53.693 35.766,46.424 64.864,46.425 "/>
<rect x="46.677" y="35.515" transform="matrix(1 -0.006 0.006 1 -0.3016 0.3049)" fill="#29B762" width="7.273" height="29.101"/>
</svg>
