<?xml version="1.0" encoding="utf-8"?>
<!-- Generator: Adobe Illustrator 16.0.0, SVG Export Plug-In . SVG Version: 6.00 Build 0)  -->
<!DOCTYPE svg PUBLIC "-//W3C//DTD SVG 1.1//EN" "http://www.w3.org/Graphics/SVG/1.1/DTD/svg11.dtd">
<svg version="1.1" id="Ebene_1" xmlns="http://www.w3.org/2000/svg" xmlns:xlink="http://www.w3.org/1999/xlink" x="0px" y="0px"
	 width="100px" height="100px" viewBox="0 0 100 100" enable-background="new 0 0 100 100" xml:space="preserve">
<path fill="#F22613" d="M50.303,87.106c-8.884,0-17.48-3.199-24.207-9.012c-7.492-6.467-12.013-15.469-12.736-25.34
	c-0.722-9.871,2.445-19.433,8.913-26.921C29.321,17.674,39.55,13,50.335,13c8.879,0,17.478,3.2,24.2,9.012
	c7.49,6.464,12.016,15.464,12.734,25.34c0.725,9.875-2.439,19.44-8.91,26.93C71.316,82.433,61.09,87.106,50.303,87.106z
	 M50.335,20.276c-8.672,0-16.894,3.757-22.557,10.315c-5.199,6.017-7.742,13.7-7.165,21.636c0.582,7.929,4.216,15.164,10.233,20.362
	c5.407,4.673,12.318,7.245,19.454,7.245c8.676,0,16.895-3.759,22.552-10.309c5.2-6.018,7.742-13.706,7.163-21.645
	c-0.582-7.934-4.213-15.167-10.23-20.364C64.375,22.847,57.473,20.276,50.335,20.276z"/>
<polygon fill="#F22613" points="58.953,62.326 36.93,43.302 41.681,37.798 63.705,56.816 "/>
<rect x="46.68" y="35.514" transform="matrix(-0.7569 -0.6535 0.6535 -0.7569 55.6802 120.8405)" fill="#F22613" width="7.272" height="29.101"/>
</svg>
