<?xml version="1.0" encoding="utf-8"?>
<!-- Generator: Adobe Illustrator 16.0.0, SVG Export Plug-In . SVG Version: 6.00 Build 0)  -->
<!DOCTYPE svg PUBLIC "-//W3C//DTD SVG 1.1//EN" "http://www.w3.org/Graphics/SVG/1.1/DTD/svg11.dtd">
<svg version="1.1" id="Layer_1" xmlns="http://www.w3.org/2000/svg" xmlns:xlink="http://www.w3.org/1999/xlink" x="0px" y="0px"
	 width="288px" height="288px" viewBox="0 0 288 288" enable-background="new 0 0 288 288" xml:space="preserve">
<g>
	<defs>
		<rect id="SVGID_1_" x="-395.333" y="-204.462" width="1080" height="1920"/>
	</defs>
	<clipPath id="SVGID_2_">
		<use xlink:href="#SVGID_1_"  overflow="visible"/>
	</clipPath>
	<g clip-path="url(#SVGID_2_)">
		<text transform="matrix(1 0 0 1 7.2988 -141.7886)" fill="#EDF0F1" font-family="'Pacifico-Regular'" font-size="51.5255">halloumi App</text>
	</g>
	<path clip-path="url(#SVGID_2_)" fill="#6D6E71" d="M144.666,19.551c-69.036,0-125,55.991-125,125c0,69.01,55.964,125,125,125
		c69.038,0,125.001-55.99,125.001-125C269.667,75.542,213.704,19.551,144.666,19.551 M182.72,86.85V68.79l50.361,29.127
		l-50.361,29.056v-16.685c-4.121,1.3-9.375,4.726-15.264,10.586c-5.051,4.96-10.264,11.308-15.605,18.228
		c-1.266-1.627-2.549-3.34-3.82-5.131c-3.495-4.719-7.061-9.439-10.694-14.16C150.022,104.428,163.206,89.297,182.72,86.85
		 M182.72,220.312v-17.655c-12.688-1.466-22.828-8.951-31.66-17.657c-14.649-14.492-27.435-34.428-40.069-50.214
		c-12.447-16.276-24.942-25.957-31.412-25.151H56.252V86.284h23.326c14.565,0.24,25.856,8.463,35.593,17.988
		c14.639,14.562,27.44,34.42,40.057,50.207c10.295,13.426,20.562,22.299,27.492,24.578v-16.928l50.361,29.057L182.72,220.312z"/>
	<path clip-path="url(#SVGID_2_)" fill="#6D6E71" d="M104.518,1331.379v-5.721c1.934,0.215,3.139,1.166,4.645,1.166
		c1.762,0,2.885-1.5,2.885-3.18c0-3.096-4.951-4.131-7.533-4.219v-1.338c0-1.166,0-2.025-1.162-2.025
		c-1.158,0-1.158,0.863-1.158,2.025v1.25v0.088c-5.127,0.562-9.258,4.176-9.258,9.684c0,6.156,5.162,7.271,9.258,8.48v7.184
		c-2.5-0.254-4.648-1.641-6.5-1.641c-1.766,0-2.889,1.381-2.889,3.066c0,3.695,5.898,4.643,9.389,4.73v1.33
		c0,0.996,0,2.029,1.158,2.029c1.162,0,1.162-1.033,1.162-2.029v-1.25v-0.123c5.375-0.43,9.77-4.141,9.77-9.863
		C114.283,1334.096,108.684,1332.586,104.518,1331.379 M102.189,1330.617c-1.377-0.525-2.281-1.162-2.281-2.283
		c0-1.373,0.986-2.285,2.281-2.629V1330.617z M104.514,1344.604v-6.281c1.635,0.557,2.793,1.373,2.793,2.799
		C107.307,1342.795,106.32,1344.172,104.514,1344.604"/>
	<path clip-path="url(#SVGID_2_)" fill="#6D6E71" d="M144.666,1173.166c-69.035,0-125,55.963-125,125c0,69.033,55.965,125,125,125
		c69.036,0,125.001-55.967,125.001-125C269.667,1229.129,213.702,1173.166,144.666,1173.166 M200.832,1289.871h-17.423
		c-2.18,0-3.462-1.342-3.462-3.471c0-1.822,3.863-3.736,3.863-9.25H181.5c-1.869,0-3.2-1.152-3.2-3.066s1.335-3.068,3.2-3.068h0.938
		c-0.576-1.105-1.156-3.469-1.156-4.715c0-5.285,5.156-8.623,11.205-8.623c6.216,0,11.243,3.293,11.243,7.688
		c0,2.051-1.462,3.387-3.464,3.387c-3.027,0-2.891-4.662-7.513-4.662c-2.221,0-4.274,1.195-4.274,3.418
		c0,0.842,0.183,1.686,0.58,2.35l0.657,1.166h6.765c1.868,0,3.199,1.156,3.199,3.066c0,1.908-1.338,3.066-3.199,3.066h-5.737
		c0,2.402-0.845,4.623-2.271,6.582h12.359c1.872,0,3.199,1.156,3.202,3.061C204.034,1288.713,202.704,1289.871,200.832,1289.871
		 M229.928,1299.285c-0.209,0.062-1.603,0.463-4.525,1.117c1.96-1.377,2.904-2.305,3.061-2.461c1.016-1.02,1.201-3.123,0.455-4.354
		l-41.702-68.801c-0.664-1.105-1.94-1.688-3.216-1.459c-1.264,0.219-2.27,1.197-2.523,2.467
		c-3.863,19.33-18.477,55.828-31.764,84.76c-0.033,0-0.059,0.002-0.085,0.002c-22.454,42.713-43.789,69.914-44.7,71.076
		c-1.055,1.338-2.656,2.105-4.346,2.105c-0.125,0-0.254,0-0.381-0.016c-1.82-0.117-3.467-1.143-4.389-2.715l-39.625-67.354
		c-0.98-1.67-1.016-3.744-0.092-5.449c0.922-1.699,2.666-2.803,4.613-2.898c30.084-1.389,57.607-3.146,81.885-5.24
		c14.404-28.145,25.625-56.207,33.385-83.457c0.609-2.105,2.393-3.666,4.561-3.965c2.161-0.299,4.316,0.697,5.473,2.562
		l47.065,75.842c0.912,1.465,1.081,3.281,0.464,4.896C232.926,1297.566,231.588,1298.797,229.928,1299.285"/>
	<path clip-path="url(#SVGID_2_)" fill="#6D6E71" d="M104.514,1344.604c1.807-0.432,2.793-1.809,2.793-3.482"/>
	<path clip-path="url(#SVGID_2_)" fill="#6D6E71" d="M204.596,734.48l0.003-0.004c-2.566-1.172-5.866-2.271-10.71-2.422v0.006
		C198.729,732.209,202.03,733.305,204.596,734.48"/>
	<path clip-path="url(#SVGID_2_)" fill="#6D6E71" d="M186.698,732.576v-6.971h7.189v-0.002h-7.192v6.965
		c-7.847,1.469-12.396,6.531-12.396,13.061c0,2.227,0.521,4.115,1.484,5.738c-0.96-1.623-1.484-3.512-1.484-5.73
		C174.299,739.105,178.849,734.043,186.698,732.576"/>
	<path clip-path="url(#SVGID_2_)" fill="#6D6E71" d="M82.219,744.092c0.954,0,1.781-0.334,2.475-1.002
		c0.693-0.67,1.039-1.484,1.039-2.441s-0.346-1.771-1.039-2.441c-0.693-0.668-1.521-1.002-2.475-1.002
		c-0.96,0-1.773,0.334-2.441,1.002c-0.67,0.67-1.006,1.484-1.006,2.441s0.336,1.771,1.006,2.441
		C80.445,743.758,81.259,744.092,82.219,744.092"/>
	<rect x="186.33" y="778.506" clip-path="url(#SVGID_2_)" fill="#6D6E71" width="0.007" height="6.961"/>
	<path clip-path="url(#SVGID_2_)" fill="#6D6E71" d="M114.504,766.912c-0.953,0-1.78,0.332-2.475,1.002
		c-0.692,0.674-1.041,1.484-1.041,2.441s0.349,1.781,1.041,2.475c0.694,0.693,1.521,1.041,2.475,1.041
		c0.961,0,1.771-0.348,2.441-1.041c0.668-0.693,1.002-1.518,1.002-2.475s-0.334-1.768-1.002-2.441
		C116.275,767.244,115.465,766.912,114.504,766.912"/>
	<path clip-path="url(#SVGID_2_)" fill="#6D6E71" d="M99.117,702.172c-29.428,0-53.359,23.941-53.359,53.365
		c0,29.422,23.932,53.363,53.359,53.363c17.23,0,32.574-8.219,42.337-20.934c0.618,0.928,1.272,1.832,1.942,2.721
		c-0.67-0.889-1.324-1.797-1.942-2.725c-6.188-9.287-9.798-20.434-9.798-32.426c0-11.994,3.609-23.145,9.798-32.432
		C131.691,710.395,116.348,702.172,99.117,702.172 M72.102,744.955c-0.576-1.338-0.863-2.773-0.863-4.307
		c0-1.529,0.287-2.965,0.863-4.303c0.573-1.342,1.361-2.5,2.367-3.48c1.002-0.979,2.164-1.762,3.479-2.334
		c1.312-0.572,2.737-0.863,4.271-0.863c1.527,0,2.963,0.291,4.307,0.863c1.338,0.572,2.507,1.355,3.513,2.334
		c1.003,0.98,1.794,2.139,2.37,3.48c0.572,1.338,0.855,2.773,0.855,4.303c0,1.533-0.283,2.969-0.855,4.307
		c-0.576,1.338-1.367,2.5-2.37,3.48c-1.006,0.979-2.175,1.758-3.513,2.33c-1.344,0.576-2.779,0.859-4.307,0.859
		c-1.533,0-2.959-0.283-4.271-0.859c-1.315-0.572-2.478-1.352-3.479-2.33C73.463,747.455,72.675,746.293,72.102,744.955
		 M87.6,780.615H75.471l33.51-50.227h12.057L87.6,780.615z M124.625,774.658c-0.573,1.342-1.361,2.514-2.367,3.516
		c-1.006,1.006-2.178,1.795-3.516,2.371c-1.344,0.572-2.754,0.859-4.238,0.859c-1.529,0-2.965-0.287-4.303-0.859
		c-1.338-0.576-2.51-1.365-3.52-2.371c-1.002-1.002-1.789-2.174-2.363-3.516c-0.576-1.338-0.862-2.773-0.862-4.303
		c0-1.484,0.286-2.895,0.862-4.234c0.574-1.338,1.361-2.51,2.363-3.516c1.01-1.006,2.182-1.795,3.52-2.367s2.773-0.863,4.303-0.863
		c1.484,0,2.895,0.291,4.238,0.863c1.338,0.572,2.51,1.361,3.516,2.367s1.794,2.178,2.367,3.516c0.572,1.34,0.861,2.75,0.861,4.234
		C125.486,771.885,125.197,773.32,124.625,774.658"/>
	<path clip-path="url(#SVGID_2_)" fill="#6D6E71" d="M194.4,750.623c6.553,2.309,10.127,5.156,11.504,9.25
		c-1.377-4.094-4.951-6.945-11.508-9.254c-6.305-2.275-8.873-3.893-8.873-6.236C185.523,746.736,188.092,748.352,194.4,750.623"/>
	<path clip-path="url(#SVGID_2_)" fill="#6D6E71" d="M188.241,769.994c4.255,0,7.116-1.689,7.116-4.551v-0.004
		c-0.004,2.865-2.861,4.551-7.119,4.551c-4.767,0-9.096-1.539-12.183-3.229l-2.196,8.588h0.004l2.197-8.582
		C179.143,768.455,183.476,769.994,188.241,769.994"/>
	<path clip-path="url(#SVGID_2_)" fill="#6D6E71" d="M144.666,630.537c-69.035,0-125,55.965-125,125.002
		c0,69.035,55.965,125,125,125c69.037,0,125.001-55.965,125.001-125C269.667,686.502,213.703,630.537,144.666,630.537
		 M190.221,814.102c-18.402,0-34.814-8.496-45.551-21.764c-10.742,13.271-27.148,21.768-45.553,21.768
		c-32.348,0-58.571-26.225-58.571-58.566c0-32.348,26.228-58.568,58.571-58.568c18.404,0,34.811,8.488,45.553,21.768
		c10.736-13.279,27.146-21.768,45.551-21.768c32.344,0,58.567,26.221,58.567,58.568
		C248.788,787.879,222.564,814.102,190.221,814.102"/>
	<path clip-path="url(#SVGID_2_)" fill="#6D6E71" d="M190.221,706.225c-14.951,0-28.936,6.686-38.356,18.334
		c-0.967,1.201-1.882,2.432-2.708,3.682c-5.4,8.098-8.246,17.535-8.246,27.297c0,9.76,2.846,19.197,8.246,27.295
		c0.826,1.244,1.738,2.479,2.708,3.686c9.421,11.645,23.405,18.33,38.356,18.33c27.19,0,49.312-22.119,49.312-49.311
		C239.533,728.344,217.411,706.225,190.221,706.225 M202.851,784.627v0.846v9.254h-9.255h-7.259h-9.256v-8.316
		c-2.847-0.738-5.497-1.748-7.697-2.963l-6.267-3.463l1.781-6.934l2.193-8.58l1.758-6.846c-2.532-3.422-3.805-7.43-3.805-11.992
		c0-8.652,4.678-15.811,12.398-19.666v-0.361v-9.254h9.258h7.191h9.258v7.768c2.2,0.605,3.948,1.328,5.303,1.945l7.096,3.246
		l-2.002,7.545l-2.197,8.293l-1.152,4.328c3.184,3.385,5.639,8.164,5.639,14.938C215.836,773.301,210.855,780.756,202.851,784.627"
		/>
	<path clip-path="url(#SVGID_2_)" fill="#6D6E71" d="M190.221,696.971c-18.405,0-34.814,8.488-45.551,21.768v0.004
		c-1.139,1.398-2.213,2.857-3.217,4.363c-6.188,9.287-9.797,20.438-9.797,32.432c0,11.992,3.609,23.139,9.797,32.426
		c0.619,0.928,1.273,1.836,1.944,2.725c0.417,0.557,0.837,1.109,1.272,1.646v0.004c10.736,13.268,27.148,21.764,45.551,21.764
		c32.344,0,58.567-26.223,58.567-58.564C248.788,723.191,222.564,696.971,190.221,696.971 M190.221,809.477
		c-16.357,0-31.65-7.309-41.957-20.049c-1.061-1.314-2.057-2.67-2.955-4.027c-5.904-8.857-9.023-19.186-9.023-29.863
		c0-10.676,3.119-21.004,9.023-29.863c0.908-1.359,1.9-2.715,2.955-4.023c10.312-12.74,25.6-20.051,41.957-20.051
		c29.739,0,53.941,24.195,53.941,53.941C244.162,785.277,219.96,809.477,190.221,809.477"/>
	<path clip-path="url(#SVGID_2_)" fill="#6D6E71" d="M195.939,746.258c-1.562-0.564-2.73-1.031-3.6-1.416
		c3.873,0.098,6.429,1.324,7.975,2.07l5.049,2.414l1.503-5.363l3.208-12.068l-3.552-1.621c-1.797-0.82-4.397-1.855-8.005-2.424
		v-6.875h-16.448v8.059c-7.644,2.729-12.396,8.934-12.396,16.6c0,11.031,9.332,15.445,16.357,17.809
		c2.229,0.742,3.44,1.334,4.087,1.729c-0.441,0.107-1.063,0.195-1.88,0.195c-4.434,0-8.142-1.67-9.958-2.662l-5.222-2.861
		l-4.57,17.824l3.132,1.729c2.692,1.488,6.315,2.641,10.085,3.262v7.445h16.514v-8.57c8.008-2.66,12.988-9.066,12.988-17.117
		C211.207,753.098,203.049,748.768,195.939,746.258 M193.596,777.914v7.561h-7.259v-0.008h-0.007v-6.961
		c-4.915-0.225-9.681-1.613-12.467-3.154v-0.002h-0.004l2.197-8.588c3.086,1.689,7.416,3.229,12.182,3.229
		c4.258,0,7.115-1.686,7.119-4.551c-0.004-2.785-2.348-4.543-7.855-6.377c-5.394-1.816-9.609-4.121-11.718-7.695
		c-0.964-1.623-1.485-3.512-1.485-5.738c0-6.529,4.551-11.592,12.396-13.061v-6.965h7.193v0.002v6.449
		c4.844,0.15,8.146,1.25,10.71,2.422l-0.003,0.004c0.003,0,0.003,0.002,0.006,0.002l-2.203,8.291
		c-1.833-0.885-5.277-2.568-10.561-2.568c-4.771,0-6.314,2.127-6.314,4.178c0,2.344,2.568,3.961,8.873,6.236
		c6.557,2.309,10.131,5.16,11.508,9.254c0.462,1.367,0.677,2.871,0.677,4.541C206.581,770.945,202.037,776.521,193.596,777.914"/>
	<path clip-path="url(#SVGID_2_)" fill="#6D6E71" d="M187.502,759.057c-5.394-1.816-9.609-4.117-11.719-7.688
		c2.109,3.574,6.325,5.877,11.719,7.693c5.508,1.834,7.853,3.592,7.855,6.377C195.357,762.654,193.01,760.896,187.502,759.057"/>
	<path clip-path="url(#SVGID_2_)" fill="#6D6E71" d="M206.578,764.408c0,6.533-4.545,12.105-12.982,13.5v7.559h-7.259v0.01h7.259
		v-7.562c8.441-1.393,12.985-6.969,12.985-13.5c0-1.67-0.215-3.174-0.677-4.541C206.363,761.234,206.578,762.738,206.578,764.408"/>
	<path clip-path="url(#SVGID_2_)" fill="#6D6E71" d="M173.863,775.35v0.002c2.786,1.541,7.552,2.93,12.467,3.154V778.5
		C181.422,778.279,176.649,776.889,173.863,775.35"/>
	<path clip-path="url(#SVGID_2_)" fill="#6D6E71" d="M191.835,740.199c-4.769,0-6.312,2.125-6.312,4.18v0.004
		c0-2.051,1.543-4.178,6.314-4.178c5.283,0,8.728,1.684,10.561,2.568l2.203-8.291c-0.003,0-0.003-0.002-0.006-0.002l-2.197,8.287
		C200.563,741.889,197.118,740.199,191.835,740.199"/>
	<path clip-path="url(#SVGID_2_)" fill="#6D6E71" d="M143.397,790.688c0.417,0.553,0.837,1.107,1.27,1.646c0,0,0.003,0,0.003,0.004
		v-0.004C144.234,791.797,143.814,791.244,143.397,790.688"/>
	<path clip-path="url(#SVGID_2_)" fill="#6D6E71" d="M141.454,723.105c1.003-1.506,2.077-2.965,3.216-4.363v-0.004
		c0,0-0.003,0-0.003,0.004C143.531,720.141,142.457,721.6,141.454,723.105"/>
	<path clip-path="url(#SVGID_2_)" fill="#6D6E71" d="M211.35,745.146l2.197-8.291l2.002-7.545l-7.096-3.246
		c-1.354-0.617-3.103-1.34-5.303-1.945v-7.768h-9.258h-7.191h-9.258v9.254v0.363c-7.721,3.854-12.398,11.012-12.398,19.664
		c0,4.562,1.272,8.57,3.805,11.992l-1.758,6.846l-2.194,8.58l-1.78,6.934l6.267,3.463c2.2,1.215,4.851,2.225,7.698,2.963v8.316
		h9.255h7.259h9.255v-9.254v-0.846c8.004-3.871,12.985-11.326,12.985-20.213c0-6.773-2.455-11.553-5.639-14.938L211.35,745.146z
		 M211.207,764.414c0,8.051-4.98,14.457-12.988,17.117v8.57h-16.514v-7.445c-3.77-0.621-7.394-1.773-10.085-3.262l-3.132-1.729
		l4.57-17.824l5.222,2.861c1.816,0.992,5.524,2.662,9.958,2.662c0.816,0,1.438-0.088,1.881-0.195
		c-0.647-0.395-1.858-0.986-4.088-1.729c-7.025-2.363-16.357-6.777-16.357-17.809c0-7.666,4.752-13.871,12.396-16.6v-8.059h16.448
		v6.875c3.607,0.568,6.208,1.604,8.004,2.424l3.553,1.621l-3.207,12.068l-1.504,5.363l-5.05-2.414
		c-1.545-0.746-4.101-1.973-7.974-2.07c0.869,0.385,2.037,0.852,3.599,1.416C203.049,748.768,211.207,753.098,211.207,764.414"/>
	<path clip-path="url(#SVGID_2_)" fill="#6D6E71" d="M79.777,738.207c0.668-0.668,1.48-1.002,2.441-1.002
		c0.955,0,1.781,0.334,2.475,1.002c0.693,0.67,1.038,1.484,1.038,2.441s-0.345,1.771-1.038,2.441
		c-0.693,0.668-1.52,1.002-2.475,1.002c-0.961,0-1.773-0.334-2.441-1.002c-0.67-0.67-1.006-1.484-1.006-2.441
		S79.107,738.877,79.777,738.207"/>
	<path clip-path="url(#SVGID_2_)" fill="#6D6E71" d="M116.945,772.83c-0.67,0.693-1.48,1.041-2.441,1.041
		c-0.953,0-1.781-0.348-2.474-1.041s-1.042-1.518-1.042-2.475s0.35-1.768,1.042-2.441c0.692-0.67,1.521-1.002,2.474-1.002
		c0.961,0,1.771,0.332,2.441,1.002c0.668,0.674,1.003,1.484,1.003,2.441S117.613,772.137,116.945,772.83"/>
	<path clip-path="url(#SVGID_2_)" fill="#EDF0F1" d="M624.517-184.456c-13.85,0-25.077,11.228-25.077,25.079
		c0,13.849,11.228,25.077,25.077,25.077c13.851,0,25.079-11.228,25.079-25.077C649.596-173.228,638.367-184.456,624.517-184.456
		 M628.18-142.286c-0.02,0.114-0.104,0.205-0.214,0.235c-0.929,0.244-2.344,0.535-3.808,0.535c-2.211,0-3.838-0.602-4.837-1.79
		c-1.08-1.284-1.408-3.203-0.974-5.704l1.991-11.123h-3.439c-0.086,0-0.168-0.037-0.224-0.105c-0.056-0.066-0.078-0.154-0.062-0.239
		l0.841-4.681c0.025-0.138,0.146-0.24,0.288-0.24h9.729c0.087,0,0.169,0.038,0.226,0.105c0.055,0.066,0.077,0.154,0.062,0.239
		l-2.945,16.407c-0.139,0.814-0.078,1.364,0.188,1.68c0.225,0.267,0.638,0.396,1.26,0.396c0.734,0,1.541-0.142,2.269-0.403
		c0.098-0.035,0.206-0.017,0.286,0.051c0.079,0.066,0.117,0.171,0.101,0.272L628.18-142.286z M625.42-168.231
		c-2.336,0-4.236-1.9-4.236-4.236s1.9-4.237,4.236-4.237s4.236,1.901,4.236,4.237C629.656-170.132,627.756-168.231,625.42-168.231"
		/>
</g>
</svg>
